<svg id="Ebene_3" data-name="Ebene 3" version="1.1" width="233.12" height="292.1" xmlns="http://www.w3.org/2000/svg"><defs id="defs1"><style id="style1">.cls-1{fill:#fff;stroke-width:0}</style></defs><path class="cls-1" d="M41.35 66.77v171.38h-15.8c0-60.07-.84-126.6-1.03-187.45l16.83 16.07m40.26 18.94L170.39 0l-.44 20.95-76.97 77.09-11.37-12.32m43.06 165.2V150.09c4.73-2.06 9.6-4.45 14.84-6.47-.12 34.27.14 73.02.01 107.29-4.97.1-10.02.09-14.85 0z" id="path1" style="fill:#fff;fill-opacity:1;stroke:#000;stroke-opacity:1"/><path class="cls-1" d="M139.51 143.62c-9.93-9.94-19.86-19.87-29.79-29.81l-11.34-11.34-5.42-5.42-11.34-11.34c-13.42-13.42-46.25-44.93-57.14-55 0 7.61.01 12.28.04 19.99l16.83 16.07 83.32 83.32c4.95-2.16 9.89-4.31 14.84-6.47zm13.43-73.95c-.33 54.92-.65 113.98-.98 168.91h16.51c.71-62.4 1.41-125.79 2.12-188.19-7.19 7.68-10.86 12-17.65 19.28z" id="path2" style="fill:#fff;fill-opacity:1;stroke:#000;stroke-opacity:1"/><path class="cls-1" d="M170.59 51.38c.11-11.91.14-19.55.04-20.67-22.98 22.78-49.2 48.91-72.26 71.76l11.8 11.8zm-45.92 224.59h108.45v16.13H124.67ZM16.84 238.15H0V8.94l16.84 18.67zm107.83 12.77h108.45v16.13H124.67Z" id="path3" style="fill:#fff;fill-opacity:1;stroke:#000;stroke-opacity:1"/></svg>